# xmcd
#
# Track frame offsets:
# 150
# 25728
# 41066
# 56617
# 76280
# 95652
# 112241
# 130541
# 147320
# 164004
# 187886
# 209768
# 228154
# 254792
#
# Disc length: 3681 seconds
#
# Revision: 0
# Processed by: cddbd v1.5.2PL0 Copyright (c) Steve Scherf et al.
# Submitted via: Audion 3.0.2 (http://www.panic.com/audion/)
#
DISCID=cc0e5f0e
DTITLE=Rodolphe Burger - no sport
DYEAR=1900
DGENRE=
TTITLE0=avance
TTITLE1=lover dose
TTITLE2=elle est pas belle ma cherie ?
TTITLE3=rattlesnake
TTITLE4=vicky
TTITLE5=je tourne
TTITLE6=arabecedaire
TTITLE7=ensemble
TTITLE8=j'erre
TTITLE9=marie
TTITLE10=blue skies
TTITLE11=ski-doo
TTITLE12=avec toi
TTITLE13=un nid ?
EXTD=
EXTT0=
EXTT1=
EXTT2=
EXTT3=
EXTT4=
EXTT5=
EXTT6=
EXTT7=
EXTT8=
EXTT9=
EXTT10=
EXTT11=
EXTT12=
EXTT13=
PLAYORDER=
